<svg width="32" height="33" viewBox="0 0 32 33" fill="none" xmlns="http://www.w3.org/2000/svg">
<path d="M23.5278 11.9046C20.2394 10.3836 15.5049 9.41418 11.0543 9.77302C11.2792 8.30019 11.8309 7.27189 12.7306 7.05766C13.9732 6.75773 15.3282 7.57716 16.6243 9.06606C17.4705 9.17318 18.4774 9.37134 19.1736 9.53201C16.8171 5.09745 13.6518 2.60703 11.2471 3.52822C9.41543 4.22447 8.47818 6.74702 8.59065 10.1319C6.20734 10.6406 4.3489 11.5404 3.15992 12.8365C3.10101 12.9061 2.96176 13.0829 3.00996 13.1686C3.04745 13.2328 3.17063 13.1632 3.21884 13.1257C4.60062 12.1617 6.36266 11.6368 8.66563 11.3101C8.99233 14.9199 10.5187 19.5044 13.0573 23.1784C11.6702 23.7247 10.508 23.7569 9.86532 23.082C8.98697 22.1555 9.01375 20.5702 9.65644 18.7064C9.32974 17.9191 8.99233 16.9497 8.78346 16.2642C6.12165 20.522 5.54859 24.5067 7.54628 26.1295C9.06731 27.3666 11.713 26.9168 14.5891 25.1279C16.2226 26.9382 17.9311 28.095 19.6449 28.4806C19.736 28.4967 19.9555 28.5288 20.0037 28.4431C20.0412 28.3789 19.9181 28.3093 19.8591 28.2825C18.3328 27.5702 16.9992 26.3008 15.5638 24.4745C18.5256 22.3858 21.7283 18.7707 23.6457 14.7378C24.8132 15.6697 25.4238 16.6605 25.1613 17.5496C24.7971 18.776 23.41 19.5419 21.4766 19.9168C20.9571 20.597 20.2876 21.3682 19.8002 21.8931C24.8186 22.0698 28.5569 20.5702 28.9639 18.0316C29.2745 16.0982 27.5607 14.0255 24.5722 12.4295C25.3274 10.1104 25.472 8.05383 24.9471 6.37212C24.915 6.28643 24.8346 6.07756 24.7329 6.07756C24.6579 6.07756 24.6579 6.2168 24.6632 6.28107C24.8239 7.95742 24.3955 9.7516 23.5278 11.9046ZM14.2838 22.6C12.1629 19.1938 10.9365 15.177 10.9418 11.1227C14.9533 10.9888 19.0397 11.9314 22.5531 13.9719C20.6679 17.5067 17.8025 20.5756 14.2838 22.6Z" fill="white"/>
</svg>
