<svg width="32" height="33" viewBox="0 0 32 33" fill="none" xmlns="http://www.w3.org/2000/svg">
<path d="M0.647647 22.4074C-0.551594 23.207 -0.151903 24.726 2.40656 25.4456C5.04509 26.3251 7.92333 26.565 10.7217 26.0852C10.8817 26.0852 11.0415 26.0053 11.1214 26.0053V23.2869L8.40293 24.1663C7.3635 24.4861 6.32406 24.566 5.2848 24.3263C4.48525 24.0864 4.64523 23.6067 5.60459 23.207L11.1214 21.2881V18.3298L3.44582 20.9683C2.48646 21.2881 1.52693 21.7679 0.647477 22.4074H0.647647ZM19.1968 10.4143V18.1698C22.4749 19.7689 25.0333 18.1698 25.0333 14.0122C25.0333 9.85467 23.5141 7.85588 19.1169 6.33668C16.7981 5.53713 14.3996 4.81765 12.001 4.33789V27.4444L17.5977 29.1234V9.69469C17.5977 8.81524 17.5977 8.17549 18.2372 8.41538C19.1167 8.65526 19.1966 9.53471 19.1966 10.4142L19.1968 10.4143ZM29.5908 20.5684C27.2722 19.7689 24.7936 19.4491 22.395 19.689C21.1157 19.7689 19.9164 20.0887 18.7971 20.4885L18.5572 20.5684V23.6866L23.7542 21.7677C24.7936 21.4479 25.8331 21.368 26.8723 21.6077C27.6719 21.8476 27.5119 22.3273 26.5525 22.727L18.5572 25.6854V28.7236L29.5908 24.6459C30.3903 24.3261 31.11 23.9263 31.7495 23.2867C32.3092 22.4872 32.0693 21.3678 29.5908 20.5683V20.5684Z" fill="white"/>
</svg>
