<svg width="32" height="33" viewBox="0 0 32 33" fill="none" xmlns="http://www.w3.org/2000/svg">
<path d="M15.9776 3.33789C9.13636 3.33789 3.53221 8.661 3 15.4252L9.9798 18.3374C10.5892 17.9156 11.3131 17.69 12.0543 17.6908C12.1236 17.6908 12.1921 17.6927 12.2595 17.6965L15.3638 13.1556V13.092C15.3638 10.3597 17.5667 8.13616 20.2747 8.13616C22.9826 8.13616 25.1854 10.3597 25.1854 13.092C25.1854 15.8244 22.9825 18.0487 20.2747 18.0487C20.2371 18.0487 20.2005 18.0477 20.1632 18.0469L15.7358 21.2336C15.7386 21.2927 15.7404 21.3518 15.7404 21.4098C15.7404 23.4618 14.0867 25.1306 12.0543 25.1306C10.2703 25.1306 8.77766 23.8451 8.44032 22.1435L3.44792 20.0606C4.99403 25.5768 10.0163 29.6208 15.9776 29.6208C23.17 29.6208 29 23.7365 29 16.4793C29 9.22214 23.17 3.33789 15.9776 3.33789ZM11.1608 23.2778L9.56134 22.6107C9.84439 23.2066 10.3353 23.705 10.9866 23.9788C12.3939 24.5709 14.0168 23.8973 14.6034 22.4758C14.8874 21.7923 14.8891 21.0242 14.608 20.3394C14.3269 19.6498 13.7956 19.1119 13.1144 18.8252C12.437 18.5413 11.7117 18.5516 11.0745 18.7944L12.7274 19.484C13.7656 19.9208 14.2566 21.1237 13.8237 22.1713C13.3918 23.2188 12.1989 23.7146 11.1608 23.2778ZM23.547 13.0922C23.547 11.2716 22.0788 9.78938 20.275 9.78938C18.4712 9.78938 17.002 11.2717 17.002 13.0922C17.002 14.9126 18.4703 16.3942 20.275 16.3942C22.0797 16.3942 23.547 14.9128 23.547 13.0922ZM17.822 13.0866C17.822 11.7167 18.9229 10.6064 20.2798 10.6064C21.6368 10.6064 22.7384 11.7167 22.7384 13.0866C22.7384 14.4564 21.6375 15.5668 20.2797 15.5668C18.922 15.5668 17.8219 14.4564 17.8219 13.0867L17.822 13.0866Z" fill="white"/>
</svg>
