<svg width="32" height="33" viewBox="0 0 32 33" fill="none" xmlns="http://www.w3.org/2000/svg">
<path d="M8.79161 5.54652C8.85835 5.48281 8.92813 5.42213 9.00398 5.36753C11.0427 4.04477 13.3939 3.33789 16.003 3.33789C18.4422 3.33789 20.7297 4.01444 22.6775 5.1855C22.8201 5.26741 23.2084 5.53439 23.4056 5.77406C21.5216 3.69892 15.9879 8.15562 15.9879 8.15562C14.0765 6.67814 12.3139 5.67394 11.0063 5.31292C9.90806 5.01257 9.15264 5.26438 8.79161 5.54652ZM25.5353 7.50638C25.4807 7.44267 25.417 7.38503 25.3594 7.31828C24.8861 6.79646 24.3006 6.67207 23.7727 6.70241C23.2903 6.85714 21.0726 7.65504 18.3391 10.2368C18.3391 10.2368 21.4154 13.2282 23.3024 16.2893C25.1864 19.3474 26.312 21.7533 25.6203 25.0874C27.7986 22.6938 29.006 19.575 29 16.3379C29 12.9309 27.6894 9.82423 25.5353 7.50638ZM20.839 17.5939C19.6406 16.2529 18.3998 14.9484 17.1225 13.6833C16.7645 13.3283 16.3853 12.9551 15.9848 12.5698C15.9848 12.5698 15.3841 13.1705 14.6075 13.9593V13.9563C13.6093 14.9666 12.3139 16.2802 11.5949 17.0508C10.3146 18.416 6.64669 22.7029 6.44342 25.1087C6.44342 25.1087 5.62732 23.2034 7.41728 18.8044C8.58531 15.9253 12.1197 11.6112 13.5942 10.2035C13.5942 10.2035 12.2441 8.72295 10.5543 7.69751L10.5421 7.69448C10.5421 7.69448 10.5209 7.67931 10.4966 7.66414C9.68356 7.17872 8.79161 6.80253 7.9391 6.75095C7.06839 6.81466 6.5132 7.4548 6.5132 7.4548C4.253 9.85457 2.99395 13.0371 3.00002 16.3409C3.00002 23.522 8.81892 29.3409 16.003 29.3409C19.8135 29.3409 23.2387 27.6996 25.6203 25.0844C25.6203 25.0814 25.3472 23.3673 23.5998 20.9068C23.1841 20.3334 21.6854 18.5374 20.839 17.5939Z" fill="white"/>
</svg>
