<svg width="549" height="97" viewBox="0 0 549 97" fill="none" xmlns="http://www.w3.org/2000/svg">
<path d="M251.049 19.7909C250.72 19.4626 250.297 19.3219 249.827 19.3219H231.591C231.121 19.3219 230.651 19.4626 230.369 19.7909C229.241 20.9633 228.348 22.1357 226.844 24.0585C226.609 24.3399 226.515 24.762 226.515 25.1372V55.2456C226.515 55.6207 226.609 56.0428 226.844 56.3242C228.348 58.247 229.241 59.4195 230.369 60.5919C230.698 60.9202 231.121 61.0609 231.591 61.0609H249.827C250.297 61.0609 250.767 60.9202 251.049 60.5919C252.177 59.4195 253.07 58.247 254.574 56.3242C254.809 56.0428 254.903 55.6207 254.903 55.2456V25.0903C254.903 24.7151 254.809 24.293 254.574 24.0117C253.07 22.0888 252.177 20.9633 251.049 19.7909ZM243.999 52.0096H237.372V28.2793H243.999V52.0096ZM121.279 1.12555C120.574 0.375182 119.587 0.0468978 118.506 0.0468978H82.456C81.422 0.0468978 80.388 0.375182 79.683 1.12555C77.1919 3.75182 73.1968 8.3009 69.8127 12.6155C69.2957 13.2721 69.0607 14.1631 69.0607 15.0073V96.5625H93.4543V68.1424H107.461V96.5625H131.854V15.0073C131.854 14.1631 131.619 13.2721 131.102 12.6155C127.765 8.3009 123.77 3.75182 121.279 1.12555ZM107.508 52.0565H93.5013V16.1328H107.508V52.0565ZM52.9393 1.12555C52.2343 0.375182 51.2003 0.0468978 50.1663 0.0468978H14.1634C13.1294 0.0468978 12.0953 0.375182 11.3903 1.12555C8.89926 3.75182 4.85716 8.3009 1.52008 12.6155C1.00307 13.2721 0.768066 14.1631 0.768066 15.0073V81.5552C0.768066 82.3994 1.00307 83.2904 1.52008 83.947C4.85716 88.2616 8.89926 92.8107 11.3903 95.4369C12.0953 96.1873 13.1294 96.5156 14.1634 96.5156H50.2133C51.2473 96.5156 52.2813 96.1873 52.9863 95.4369C55.4774 92.8107 59.4725 88.2616 62.8566 83.947C63.3736 83.2904 63.6086 82.3994 63.6086 81.5552V54.8235H39.215V80.4766H25.2087V16.1328H39.215V41.7859H63.6086V15.0542C63.6086 14.21 63.3736 13.319 62.8566 12.6624C59.4255 8.3009 55.4304 3.75182 52.9393 1.12555ZM214.012 0.0468978H187.316V96.5625H232.719V78.3662H214.012V0.0468978ZM164.05 0.0468978H137.306V96.5625H182.709V78.3662H164.003V0.0468978H164.05ZM346.978 1.12555C346.273 0.375182 345.239 0 344.205 0H294.807V96.5156H344.205C345.239 96.5156 346.273 96.1873 346.978 95.4369C349.47 92.8107 353.465 88.2616 356.849 83.947C357.366 83.2904 357.601 82.3994 357.601 81.5552V15.0542C357.601 14.21 357.366 13.319 356.849 12.6624C353.512 8.3009 349.47 3.79872 346.978 1.12555ZM333.207 80.4766H319.201V16.1328H333.207V80.4766ZM548.613 42.1142V0.0468978H525.818V35.9237L519.943 42.9114H517.499L511.576 35.9237V0.0468978H488.828V42.1142C488.828 42.9114 489.11 43.7556 489.627 44.3653L505.56 63.6403V96.5625H531.834V63.6403L547.814 44.3653C548.331 43.7556 548.613 42.9583 548.613 42.1142ZM431.251 19.7909H445.399V96.5625H469.792V19.7909H483.94V0.0468978H431.204L431.251 19.7909ZM259.556 61.0609H270.461V47.2729H282.117V37.5651H270.461V28.9828H283.621V19.275H259.556V61.0609ZM401.641 80.4766H387.634V0.0468978H363.241V81.6021C363.241 82.4463 363.476 83.3373 363.993 83.9939C367.33 88.3085 371.372 92.8576 373.863 95.4838C374.568 96.2342 375.602 96.5625 376.636 96.5625H412.686C413.72 96.5625 414.754 96.2342 415.459 95.4838C417.95 92.8576 421.945 88.3085 425.329 83.9939C425.846 83.3373 426.081 82.4463 426.081 81.6021V0.0468978H401.688L401.641 80.4766Z" fill="white"/>
</svg>