<svg width="540" height="52" viewBox="0 0 540 52" fill="none" xmlns="http://www.w3.org/2000/svg">
<path d="M58.2814 26.8628H57.7644V25.2214H57.9054C60.1614 25.2214 61.9005 24.4241 63.0285 22.7827C64.1565 21.1882 64.7206 18.6088 64.7206 15.1853V10.8707C64.7206 7.86922 63.9685 5.47743 62.4645 3.74221C60.9605 2.00699 58.8924 1.11594 56.2134 1.11594H0V51.6717H56.5894C59.2684 51.6717 61.4305 50.7807 62.9815 48.9516C64.5796 47.1226 65.3786 44.5433 65.3786 41.1666V36.5237C65.3316 30.0519 62.9815 26.8628 58.2814 26.8628ZM17.6724 13.3563H46.2021C46.7191 13.3563 46.9541 13.7314 46.9541 14.4349V19.3592C46.9541 20.0626 46.7191 20.4378 46.2021 20.4378H17.6724V13.3563ZM47.6121 38.3059C47.6121 39.0093 47.3771 39.3845 46.8601 39.3845H17.6724V31.6464H46.8131C47.3301 31.6464 47.5651 32.0216 47.5651 32.725L47.6121 38.3059ZM85.6831 1.06904H67.9636V51.6248H119.524V34.4133H85.6831V1.06904ZM142.789 1.06904L120.323 51.6248H139.499L143.353 41.9639H169.345L173.199 51.6248H193.598L170.802 1.06904H142.789ZM148.618 28.7856L154.728 13.497H158.018L164.081 28.7856H148.618ZM250.657 0.834552H201.494C198.956 0.834552 197.029 1.8194 195.619 3.74221C194.209 5.66502 193.551 8.43199 193.551 12.0431V40.7445C193.551 44.3088 194.256 47.0288 195.619 48.9986C197.029 50.9683 198.956 51.9531 201.494 51.9531H250.657C253.195 51.9531 255.169 50.9683 256.579 48.9986C257.942 47.0288 258.647 44.3088 258.647 40.7445V30.7553H240.928V35.5389C240.928 35.8672 240.834 36.1017 240.693 36.2893C240.552 36.4768 240.364 36.5706 240.129 36.5706H211.975C211.74 36.5706 211.552 36.4768 211.411 36.2893C211.27 36.1017 211.176 35.8672 211.176 35.5389V17.2019C211.176 16.8736 211.27 16.6391 211.411 16.4515C211.552 16.2639 211.74 16.1701 211.975 16.1701H240.129C240.364 16.1701 240.552 16.2639 240.693 16.4515C240.834 16.6391 240.928 16.8736 240.928 17.2019V21.9386H258.647V12.0431C258.647 8.43199 257.942 5.66502 256.579 3.74221C255.169 1.77251 253.195 0.834552 250.657 0.834552ZM323.885 1.06904H300.149L282.9 17.3895H279.516V1.06904H261.796V51.6248H279.516V34.554H282.947L299.773 51.6248H324.167L297.94 26.2062L323.885 1.06904ZM398.852 0.600063H348.466C345.928 0.600063 344.001 1.58491 342.591 3.50772C341.181 5.43053 340.523 8.1975 340.523 11.8086V40.5101C340.523 44.0743 341.228 46.7944 342.591 48.7641C344.001 50.7338 345.928 51.7186 348.466 51.7186H398.852C401.39 51.7186 403.364 50.7338 404.727 48.7641C406.09 46.7944 406.795 44.0743 406.795 40.5101V11.8086C406.795 8.1975 406.09 5.43053 404.727 3.50772C403.364 1.58491 401.39 0.600063 398.852 0.600063ZM389.075 35.3044C389.075 35.6327 388.981 35.8672 388.84 36.0548C388.699 36.2424 388.511 36.3362 388.276 36.3362H358.948C358.713 36.3362 358.525 36.2424 358.384 36.0548C358.243 35.8672 358.149 35.6327 358.149 35.3044V16.9674C358.149 16.6391 358.243 16.4046 358.384 16.217C358.525 16.0294 358.713 15.9356 358.948 15.9356H388.276C388.511 15.9356 388.699 16.0294 388.84 16.217C388.981 16.4046 389.075 16.6391 389.075 16.9674V35.3044ZM465.828 0.881452H410.132V51.4372H427.804V38.4466H465.828C468.366 38.4466 470.293 37.4617 471.656 35.5389C473.019 33.6161 473.724 30.8491 473.724 27.3318V12.0431C473.724 8.47889 473.019 5.75882 471.656 3.83601C470.293 1.86631 468.366 0.881452 465.828 0.881452ZM456.005 23.2517C456.005 23.58 455.911 23.8145 455.77 24.002C455.629 24.1896 455.441 24.2834 455.206 24.2834H427.757V14.9977H455.206C455.723 14.9977 455.958 15.3729 455.958 16.0763L456.005 23.2517ZM537.834 23.7207C536.706 21.9385 534.92 20.9537 532.523 20.7661L492.196 17.7178C491.632 17.7178 491.35 17.2957 491.35 16.4984V15.4667C491.35 15.1384 491.397 14.9039 491.538 14.7632C491.679 14.6225 491.82 14.5287 492.008 14.5287H524.251C524.486 14.5287 524.674 14.5756 524.768 14.7163C524.862 14.857 524.909 15.0915 524.909 15.3729V17.7178L539.103 14.9977L539.15 10.5893C539.15 7.40024 538.539 4.91466 537.364 3.17944C536.142 1.44422 534.45 0.553169 532.241 0.553169H484.018C481.762 0.553169 479.976 1.44422 478.754 3.17944C477.484 4.91466 476.873 7.40024 476.873 10.5893V21.0944C476.873 27.4725 479.224 30.8491 483.924 31.2243L524.251 34.1789C524.58 34.2258 524.815 34.3196 524.909 34.5071C525.05 34.6947 525.097 34.9761 525.097 35.3044V36.7113C525.097 37.321 524.862 37.6493 524.439 37.6493H491.303C490.88 37.6493 490.692 37.3679 490.692 36.7582V33.7568H476.403V41.5418C476.403 44.7309 477.014 47.2164 478.237 48.9516C479.459 50.6869 481.151 51.5779 483.36 51.5779H532.429C534.732 51.5779 536.518 50.6869 537.74 48.9516C538.962 47.2164 539.573 44.7309 539.573 41.5418V30.896C539.526 27.9415 538.962 25.5497 537.834 23.7207Z" fill="white"/>
</svg>
