<svg width="66" height="52" viewBox="0 0 66 52" fill="none" xmlns="http://www.w3.org/2000/svg">
<path d="M64.0261 21.9854C62.71 20.344 60.595 19.4999 57.7279 19.4999H23.5111C21.114 19.4999 20.08 20.6254 18.811 21.9385C18.1059 22.642 15.3329 25.7373 15.3329 25.7373C15.3329 25.7373 15.3329 18.3743 15.3329 17.0612C15.3329 16.7329 15.3799 16.1701 15.8029 15.748C16.6019 14.9039 17.5889 13.8252 18.247 13.0749C18.623 12.6528 18.858 12.5121 19.281 12.5121C20.174 12.5121 43.9096 12.5121 52.8398 12.5121C54.7668 12.5121 55.3308 12.1838 57.3519 9.97961C60.407 6.64987 65.6241 0.693855 65.6241 0.693855H13.7819C11.1498 0.693855 10.5858 1.11594 8.70571 3.17944C7.76569 4.21119 5.36866 6.64988 2.6896 9.69823C0.480546 12.1838 0.668527 13.0749 0.668527 14.7163V40.7445C0.668527 44.3088 1.37353 47.0757 2.83057 49.0454C4.2876 51.0152 6.30865 52 8.94071 52H57.6809C60.36 52 62.381 51.0152 63.8381 49.0454C65.2481 47.0757 66.0001 44.3088 66.0001 40.7445V29.8643C66.0001 26.2531 65.3421 23.6269 64.0261 21.9854ZM50.6777 39.0562C50.6777 39.3845 50.6307 39.619 50.4897 39.8066C50.3487 39.9942 50.1607 40.088 49.9257 40.088H16.0849C15.8499 40.088 15.6619 39.9942 15.5209 39.8066C15.3799 39.619 15.3329 39.3845 15.3329 39.0562C15.3329 39.0562 15.3329 38.7279 15.3799 37.9307C15.3799 37.0865 15.2859 36.8051 15.7089 36.3362C16.3199 35.6327 17.7299 34.132 18.6229 33.2409C19.657 32.2091 20.08 31.834 20.738 31.834L50.1137 31.7871C50.5367 31.7871 50.7247 32.0685 50.7247 32.5843L50.6777 39.0562Z" fill="#F96800"/>
</svg>
