<svg width="21" height="21" viewBox="0 0 21 21" fill="none" xmlns="http://www.w3.org/2000/svg">
<path d="M13.5484 11.4174C13.4074 11.2767 13.2664 11.1829 13.0783 11.136V10.8547H13.6894C14.2064 10.8547 14.5824 10.714 14.8644 10.4326C15.1464 10.1512 15.2874 9.776 15.2874 9.30703V7.47802C15.2874 6.91524 15.1464 6.49317 14.8174 6.21178C14.4884 5.93039 14.0654 5.7428 13.5014 5.7428H6.35722V15.1224H8.09624V11.3705H11.6683L13.4074 15.1224H15.5224L14.0654 12.074C13.8304 11.7926 13.6894 11.5581 13.5484 11.4174ZM8.00226 10.0105V7.14973H13.2194C13.3134 7.14973 13.3604 7.14973 13.4074 7.19663C13.4544 7.24352 13.4544 7.29043 13.4544 7.38422V9.72911C13.4544 9.82291 13.4544 9.8698 13.4074 9.9167C13.3604 9.9636 13.3134 9.9636 13.2194 9.9636H8.00226V10.0105ZM10.6343 0.677841C5.13518 0.677841 0.623047 5.13313 0.623047 10.6202C0.623047 16.1072 5.08818 20.5625 10.6343 20.5625C16.1334 20.5625 20.6456 16.1072 20.6456 10.6202C20.5986 5.13313 16.1334 0.677841 10.6343 0.677841ZM10.6343 19.0149C5.9812 19.0149 2.17411 15.263 2.17411 10.5733C2.17411 5.93039 5.9812 2.13167 10.6343 2.13167C15.2874 2.13167 19.0945 5.8835 19.0945 10.5733C19.0945 15.263 15.2874 19.0149 10.6343 19.0149Z" fill="white"/>
</svg>
